<?xml version="1.0" encoding="UTF-8"?>
<svg width="64px" height="64px" viewBox="0 0 64 64" version="1.1" xmlns="http://www.w3.org/2000/svg" xmlns:xlink="http://www.w3.org/1999/xlink">
    <!-- Generator: Sketch 53 (72520) - https://sketchapp.com -->
    <title>icon-dessert</title>
    <desc>Created with Sketch.</desc>
    <g id="icon-dessert" stroke="none" stroke-width="1" fill="none" fill-rule="evenodd">
        <g id="003-cake" transform="translate(0.000000, 9.000000)" fill="#222222">
            <path d="M62.933375,38.433375 L1.066625,38.433375 C0.477875,38.433375 0,38.910125 0,39.5 C0,43.61625 3.349375,46.966625 7.466625,46.966625 L56.53325,46.966625 C60.649625,46.966625 64,43.61625 64,39.5 C64,38.910125 63.52325,38.433375 62.933375,38.433375 Z M56.533375,44.833375 L7.466625,44.833375 C4.890625,44.833375 2.736,42.997625 2.241,40.56675 L61.758875,40.56675 C61.264,42.997625 59.109375,44.833375 56.533375,44.833375 Z" id="Shape" fill-rule="nonzero"></path>
            <path d="M53.333375,12.833375 L10.666625,12.833375 C7.725875,12.833375 5.33325,15.225875 5.33325,18.16675 L5.33325,39.5 C5.33325,40.089875 5.811125,40.566625 6.399875,40.566625 L57.599875,40.566625 C58.18975,40.566625 58.6665,40.089875 58.6665,39.5 L58.6665,18.166625 C58.666625,15.225875 56.274125,12.833375 53.333375,12.833375 Z M56.533375,38.433375 L7.466625,38.433375 L7.466625,18.166625 C7.466625,16.402375 8.902375,14.966625 10.666625,14.966625 L53.33325,14.966625 C55.0975,14.966625 56.53325,16.402375 56.53325,18.166625 L56.533375,38.433375 L56.533375,38.433375 Z" id="Shape" fill-rule="nonzero"></path>
            <path d="M51.2,17.1 L32,17.1 L32,19.233375 L51.2,19.233375 C51.78875,19.233375 52.266625,19.71225 52.266625,20.3 L52.266625,33.1 C52.266625,33.68875 51.78875,34.166625 51.2,34.166625 L32,34.166625 L32,36.3 L51.2,36.3 C52.96425,36.3 54.4,34.86425 54.4,33.1 L54.4,20.3 C54.4,18.53575 52.96425,17.1 51.2,17.1 Z" id="Path"></path>
            <rect id="Rectangle" x="32" y="25.633375" width="20.266625" height="2.133375"></rect>
            <rect id="Rectangle" x="30.933375" y="13.9" width="2.133375" height="25.6"></rect>
            <path d="M31.065625,21.72825 C29.103,20.157 26.361625,20.157 24.399,21.72825 C23.221375,22.67125 21.576625,22.67125 20.399,21.72825 C18.436375,20.157 15.695,20.157 13.732375,21.72825 C12.555875,22.67225 10.911,22.67225 9.73025,21.72725 C8.7905,20.9785 7.61075,20.56675 6.408625,20.56675 C6.405375,20.56675 6.401125,20.56675 6.398,20.56675 L6.40225,22.700125 C6.404375,22.700125 6.4065,22.700125 6.408625,22.700125 C7.13075,22.700125 7.838,22.947625 8.400125,23.3945 C10.36275,24.96675 13.104125,24.96675 15.06675,23.3945 C16.244375,22.451625 17.889125,22.451625 19.06675,23.3945 C20.048125,24.180625 21.2235,24.573125 22.400125,24.573125 C23.57675,24.573125 24.752125,24.180625 25.731375,23.3945 C26.91,22.452625 28.555875,22.452625 29.72175,23.386 C30.308375,23.867125 31.008125,24.216875 31.744125,24.39825 L32.252875,22.32575 C31.824,22.22 31.4165,22.01625 31.065625,21.72825 Z" id="Path"></path>
            <path d="M32,4.3 C29.05925,4.3 26.666625,6.6925 26.666625,9.633375 C26.666625,12.574125 29.059125,14.96675 32,14.96675 C34.94075,14.96675 37.333375,12.57425 37.333375,9.633375 C37.333375,6.6925 34.94075,4.3 32,4.3 Z M32,12.833375 C30.23575,12.833375 28.8,11.397625 28.8,9.633375 C28.8,7.869125 30.23575,6.433375 32,6.433375 C33.76425,6.433375 35.2,7.869125 35.2,9.633375 C35.2,11.397625 33.76425,12.833375 32,12.833375 Z" id="Shape" fill-rule="nonzero"></path>
            <path d="M30.933375,5.366625 L33.06675,5.366625 C33.06675,3.602375 34.5025,2.166625 36.26675,2.166625 L36.26675,0.033375 C33.325875,0.033375 30.933375,2.425875 30.933375,5.366625 Z" id="Path"></path>
            <rect id="Rectangle" x="11.733375" y="17.1" width="2.133375" height="2.133375"></rect>
            <rect id="Rectangle" x="18.133375" y="17.1" width="2.133375" height="2.133375"></rect>
            <rect id="Rectangle" x="24.533375" y="17.1" width="2.133375" height="2.133375"></rect>
        </g>
    </g>
</svg>