<?xml version="1.0" encoding="UTF-8"?>
<svg width="64px" height="64px" viewBox="0 0 64 64" version="1.1" xmlns="http://www.w3.org/2000/svg" xmlns:xlink="http://www.w3.org/1999/xlink">
    <!-- Generator: Sketch 53 (72520) - https://sketchapp.com -->
    <title>icon-drinks</title>
    <desc>Created with Sketch.</desc>
    <g id="icon-drinks" stroke="none" stroke-width="1" fill="none" fill-rule="evenodd">
        <g id="004-wine" transform="translate(9.000000, 0.000000)" fill="#222222">
            <path d="M15.034375,19.626625 L15.034375,1.066625 C15.034375,0.477875 14.5565,0 13.96775,0 L7.56775,0 C6.979,0 6.501125,0.477875 6.501125,1.066625 L6.501125,19.626625 C2.53525,21.870875 0.1,26.026625 0.101125,30.624 L0.101125,62.933375 C0.101125,63.52325 0.579,64 1.16775,64 L20.36775,64 C20.9565,64 21.434375,63.52325 21.434375,62.933375 L21.434375,30.625125 C21.435375,26.026625 19.00025,21.870875 15.034375,19.626625 Z M19.3010004,61.866625 L2.23437348,61.866625 L2.234375,30.624 C2.23225,26.6165 4.4595,23.013375 8.0445,21.221375 C8.406125,21.04 8.634375,20.671 8.634375,20.26675 L8.634375,2.133375 L12.901,2.133375 L12.901,20.26675 C12.901,20.671 13.12925,21.041125 13.490875,21.221375 C17.076,23.01225 19.302125,26.6155 19.301,30.624 L19.3010004,61.866625 Z" id="Shape" fill-rule="nonzero"></path>
            <rect id="Rectangle" x="7.5645" y="5.333375" width="6.4" height="2.133375"></rect>
            <path d="M46.799625,34.525875 L44.89025,21.181875 C44.815625,20.657125 44.3655,20.266625 43.83425,20.266625 L31.03425,20.266625 C30.504125,20.266625 30.054,20.657 29.97725,21.181875 L28.069,34.46725 C27.887625,35.68325 27.95375,36.9025 28.25675,38.069375 L28.442375,38.85125 C29.477,42.981375 33.174125,45.865625 37.43225,45.86675 C37.438625,45.86675 37.442875,45.86675 37.44825,45.86675 C41.678625,45.86675 45.369375,43.008125 46.429625,38.89075 L46.6045,38.14625 C46.914875,36.95575 46.979875,35.7355 46.799625,34.525875 Z M44.535125,37.632 L44.359125,38.378625 C43.546375,41.53275 40.70575,43.73325 37.44825,43.73325 C37.442875,43.73325 37.438625,43.73325 37.434375,43.73325 C34.155375,43.73325 31.3085,41.5125 30.516,38.346625 L30.32825,37.555125 C30.090375,36.64525 30.041375,35.711875 30.181,34.7765 L31.958125,22.4 L42.909625,22.4 L44.689875,34.834125 C44.8285,35.76425 44.779375,36.697625 44.535125,37.632 Z" id="Shape" fill-rule="nonzero"></path>
            <rect id="Rectangle" x="36.3645" y="44.8" width="2.133375" height="13.866625"></rect>
            <path d="M39.567625,57.6 L35.301,57.6 C32.36025,57.6 29.967625,59.9925 29.967625,62.933375 C29.967625,63.52325 30.444375,64 31.03425,64 L43.83425,64 C44.424125,64 44.900875,63.52325 44.900875,62.933375 C44.901,59.9925 42.5085,57.6 39.567625,57.6 Z M32.283375,61.866625 C32.723875,60.625 33.911125,59.73325 35.301,59.73325 L39.567625,59.73325 C40.9585,59.73325 42.14475,60.625 42.58525,61.866625 L32.283375,61.866625 Z" id="Shape" fill-rule="nonzero"></path>
            <rect id="Rectangle" x="28.89775" y="35.2" width="17.066625" height="2.133375"></rect>
            <rect id="Rectangle" x="7.5645" y="14.933375" width="6.4" height="2.133375"></rect>
            <path d="M16.101,33.066625 L5.434375,33.066625 C4.845625,33.066625 4.36775,33.543375 4.36775,34.13325 L4.36775,53.33325 C4.36775,53.923125 4.845625,54.399875 5.434375,54.399875 L16.101,54.399875 C16.68975,54.399875 17.167625,53.923125 17.167625,53.33325 L17.167625,34.13325 C17.167625,33.5435 16.68975,33.066625 16.101,33.066625 Z M15.034375,52.266625 L6.501,52.266625 L6.501,35.2 L15.034375,35.2 L15.034375,52.266625 Z" id="Shape" fill-rule="nonzero"></path>
        </g>
    </g>
</svg>