<?xml version="1.0" encoding="UTF-8"?>
<svg width="64px" height="64px" viewBox="0 0 64 64" version="1.1" xmlns="http://www.w3.org/2000/svg" xmlns:xlink="http://www.w3.org/1999/xlink">
    <!-- Generator: Sketch 53 (72520) - https://sketchapp.com -->
    <title>icon-utensils</title>
    <desc>Created with Sketch.</desc>
    <g id="icon-utensils" stroke="none" stroke-width="1" fill="none" fill-rule="evenodd">
        <g id="006-fork" fill="#222222">
            <path d="M47.5737305,25.5048828 L51.3339844,25.2666015 C51.340332,25.2661133 51.347168,25.265625 51.3540039,25.2651367 C54.0336914,25.0390625 56.4389649,23.6352539 57.9536133,21.4125976 L60.9262695,17.0512695 C63.5136719,13.2543945 64.5161132,8.668457 63.7480469,4.13867188 C63.597168,3.2490235 63.1420899,2.42919925 62.4672851,1.83105475 C61.7919923,1.23242188 60.9238281,0.87890625 60.022461,0.8359375 C55.4316406,0.616211 51.0004883,2.16162112 47.5415039,5.18554688 L43.5678711,8.659668 C41.5429688,10.4296875 40.4375,12.9858399 40.5341798,15.6738281 C40.534668,15.6801758 40.534668,15.6870117 40.5351563,15.6938476 L40.7495118,19.4550781 C40.8330078,20.9213867 40.2954101,22.368164 39.2773438,23.421875 L8.2333985,55.3134765 C7.40234375,56.1801758 6.9731445,57.3691406 7.02539063,58.6616211 C7.08300775,60.0844726 7.73583988,61.4819336 8.77197263,62.4003906 C9.70800775,63.2299805 10.9946289,63.7026367 12.2807618,63.7026367 C12.418457,63.7026367 12.5561524,63.6972656 12.6933594,63.6860351 C13.9829101,63.5830077 15.1123048,63.0146485 15.8769531,62.0800781 L43.8100586,27.444336 C44.7363281,26.3046875 46.1083985,25.5976562 47.5737305,25.5048828 Z M42.3188476,26.2373047 L14.3881836,60.8701172 C13.9614258,61.3916015 13.3051758,61.7128906 12.5405274,61.7739257 C11.6308594,61.8466797 10.6982422,61.5439452 10.0449219,60.9648438 C9.3916015,60.3852539 8.97949225,59.4956055 8.94287112,58.5839844 C8.91162112,57.8178711 9.15136725,57.1279297 9.61328125,56.6464844 L40.6547851,24.7573242 C42.0463868,23.3173828 42.7788086,21.3452149 42.6655274,19.3461914 L42.4511719,15.5947265 C42.378418,13.4907226 43.2451172,11.4902344 44.8305664,10.1040039 L48.8041993,6.62988275 C51.8881836,3.934082 55.840332,2.55761725 59.9311524,2.75195312 C60.3969726,2.774414 60.8452149,2.95703125 61.194336,3.2666015 C61.543457,3.57568362 61.7783203,3.99951175 61.8564453,4.45898438 C62.5410156,8.49755862 61.647461,12.5854492 59.3408203,15.9702149 L56.368164,20.3320312 C55.1821289,22.0722656 53.2998048,23.1723633 51.2021485,23.352539 L47.4521485,23.5898438 C45.4541015,23.7167969 43.5839844,24.680664 42.3188476,26.2373047 Z" id="Shape" fill-rule="nonzero"></path>
            <path d="M62.227539,55.071289 L41.4125976,36.112793 C41.0209961,35.7558594 40.4145508,35.7841797 40.0571289,36.1757812 C39.7006836,36.5673827 39.7290039,37.1743164 40.1206055,37.53125 L60.9301758,56.4853515 C61.425293,56.9428711 61.7060548,57.6171875 61.7211914,58.383789 C61.7392577,59.2958985 61.3813476,60.2084961 60.7636719,60.8261719 C60.1464844,61.4433594 59.2353515,61.8022461 58.321289,61.7836914 C57.5546875,61.7685547 56.8803711,61.487793 56.4277344,60.9980469 L37.8798828,40.6347656 C37.5229493,40.2426757 36.9160156,40.2148437 36.524414,40.571289 C36.1328125,40.9282226 36.1044923,41.5351562 36.4614258,41.9267577 L55.0136719,62.2949219 C55.8291015,63.1767577 56.9902344,63.6767577 58.2836914,63.7021485 C58.3173828,63.7026367 58.350586,63.703125 58.3842774,63.703125 C59.774414,63.703125 61.1645508,63.1391601 62.1201173,62.1831055 C63.0996094,61.2036132 63.6674805,59.7695312 63.6391601,58.3461914 C63.6137695,57.0527344 63.1142578,55.8916015 62.227539,55.071289 L62.227539,55.071289 Z" id="Path"></path>
            <path d="M11.5761719,25.3232423 C13.1640625,26.7861328 15.2270507,27.6201173 17.3852539,27.671875 C17.3920899,27.6723633 17.3989258,27.6723633 17.4052735,27.6723633 L21.1728515,27.684082 C22.6416015,27.6884765 24.0532226,28.3120118 25.0439452,29.3916015 L26.7036133,31.2133789 C26.8930664,31.4213868 27.1523437,31.5268555 27.413086,31.5268555 C27.6435547,31.5268555 27.875,31.444336 28.0585937,31.2768555 C28.4506836,30.9199219 28.4790039,30.3129883 28.1220703,29.9213868 L26.459961,28.097168 C25.1064452,26.621582 23.1816406,25.7719726 21.1791992,25.7651368 L17.421875,25.753418 C15.7524414,25.7109375 14.15625,25.0717774 12.9194336,23.9521485 L2.0009765,10.9726563 C1.8896485,10.8398438 1.89794925,10.647461 2.02050775,10.5249024 C2.10449225,10.4404298 2.203125,10.4282226 2.2543945,10.4282226 C2.305664,10.4282226 2.40429687,10.4404298 2.4887695,10.5249024 L12.4272461,20.4638673 C13.409668,21.446289 15.0083007,21.446289 15.9907226,20.4633789 L17.1586914,19.2958985 L17.1586914,19.2954101 L19.2324219,17.2216798 C19.2324219,17.2216798 19.2329101,17.2216798 19.2329101,17.2211914 C19.2329101,17.2211914 19.2333985,17.2207031 19.2333985,17.2207031 L20.4008789,16.0532226 C21.3833007,15.0708008 21.3833007,13.472168 20.4008789,12.4897461 L10.4624024,2.5512695 C10.3334961,2.42236325 10.3334961,2.211914 10.4624024,2.08300775 C10.584961,1.96044925 10.7773437,1.9521485 10.9101562,2.0634765 L23.8896485,12.9824219 C25.0097656,14.21875 25.6489257,15.8154298 25.6914062,17.484375 L25.7026367,21.2421875 C25.7094726,23.2441406 26.5595702,25.1689453 28.0371094,26.5253906 L29.8154297,28.1450195 C30.2075195,28.5019531 30.8139649,28.4736328 31.1708985,28.0820313 C31.5273437,27.6899414 31.4990235,27.0834961 31.1074219,26.7265625 L29.3320312,25.109375 C28.2495117,24.116211 27.6264649,22.7041015 27.621582,21.2358399 L27.6098632,17.4682618 C27.6098632,17.4614258 27.6098632,17.4545899 27.609375,17.4477539 C27.5576172,15.2895508 26.7236327,13.2265625 25.2607422,11.6386719 C25.2333985,11.6088868 25.2041015,11.5805664 25.1728515,11.5541993 L12.1450195,0.595214875 C11.2446289,-0.162597625 9.93798825,-0.105957 9.105957,0.72607425 C8.22851562,1.60351563 8.22851562,3.03076175 9.105957,3.90771488 L19.0444336,13.8466798 C19.2788086,14.0810548 19.2788086,14.4624024 19.0444336,14.6967774 L18.5546875,15.1860351 L7.47802737,4.10986325 C7.10351562,3.73486325 6.49609375,3.73486325 6.121582,4.10986325 C5.74707025,4.484375 5.74707025,5.09179688 6.121582,5.46630863 L17.1982422,16.5429688 L16.4804687,17.2602539 L5.40380862,6.184082 C5.02929687,5.80957025 4.421875,5.80957025 4.04736325,6.184082 C3.67236325,6.55859375 3.67236325,7.16601563 4.04736325,7.54052738 L15.1235351,18.6171875 L14.6342774,19.1069336 C14.3999024,19.3413086 14.0185547,19.3413086 13.7841797,19.1069336 L3.84521487,9.168457 C3.42041012,8.74365238 2.85546875,8.50927738 2.2543945,8.50927738 C1.65332025,8.50927738 1.08837887,8.74365238 0.66357425,9.168457 C-0.168457,10.0004883 -0.224609375,11.3071289 0.532714875,12.2080078 L11.4921875,25.2353515 C11.5180664,25.2666015 11.5463867,25.2958985 11.5761719,25.3232423 Z" id="Path"></path>
        </g>
    </g>
</svg>