<?xml version="1.0" encoding="UTF-8"?>
<svg width="64px" height="64px" viewBox="0 0 64 64" version="1.1" xmlns="http://www.w3.org/2000/svg" xmlns:xlink="http://www.w3.org/1999/xlink">
    <!-- Generator: Sketch 53 (72520) - https://sketchapp.com -->
    <title>icon-sides</title>
    <desc>Created with Sketch.</desc>
    <g id="icon-sides" stroke="none" stroke-width="1" fill="none" fill-rule="evenodd">
        <g id="icon-side" fill="#222222">
            <path d="M62.93125,40.4559844 L1.06875,40.4559844 C0.48,40.4559844 0.002125,40.9318051 0.002125,41.5205302 C0.002125,53.8465809 10.0495,63.8753684 22.400625,63.8753684 L41.599375,63.8753684 C53.9495,63.8753684 63.997875,53.8465809 63.997875,41.5205302 C63.997875,40.9318051 63.521125,40.4559844 62.93125,40.4559844 Z M41.599375,61.7462768 L22.400625,61.7462768 C11.58425,61.7462768 2.71975,53.2450058 2.163,42.5849513 L61.836875,42.5849513 C61.28025,53.2450058 52.41575,61.7462768 41.599375,61.7462768 Z" id="Shape" fill-rule="nonzero"></path>
            <path d="M54.402875,14.9139961 C54.402875,14.8362729 54.40175,14.7585497 54.394375,14.6404055 C54.230125,12.8754776 53.01425,11.4255595 51.409,10.8816218 L52.616375,9.67660039 C54.710125,7.62959844 54.92025,4.35511891 53.08775,2.04300975 C51.12525,-0.337216374 47.588375,-0.675805068 45.2045,1.28187135 C45.069,1.39365302 44.937875,1.51179727 44.806625,1.64279142 L43.49475,2.97132164 C42.944375,1.37768421 41.4885,0.172662768 39.6945,0.00661208577 C37.332,-0.122136452 35.332125,1.68745419 35.20525,4.03150097 C35.201,4.10922417 35.199875,4.18694737 35.199875,4.26354776 L35.199875,5.89548538 C34.57275,5.53244444 33.846375,5.32385185 33.071,5.32272904 C32.99425,5.32272904 32.91525,5.3248499 32.796875,5.33121248 C30.5165,5.54304873 28.762,7.49860429 28.800375,9.76592593 L28.800375,11.2137232 C28.160375,10.8443197 27.430875,10.6463314 26.6715,10.6452086 C26.59475,10.6452086 26.516875,10.6473294 26.3985,10.653692 C24.117,10.8655283 22.3625,12.8210838 22.400875,15.0885302 L22.400875,30.8753216 C22.400875,31.4640468 22.87875,31.9398674 23.4675,31.9398674 L41.599625,31.9398674 C43.9525,31.9398674 45.866,30.0300975 45.864875,27.6839298 C45.864875,26.9089435 45.656875,26.1818635 45.292125,25.554963 L46.733125,25.554963 C49.024125,25.6177154 50.9835,23.8410604 51.197875,21.5235867 C51.24375,20.6570292 51.026125,19.8373801 50.6145,19.1412398 C51.57225,19.0348226 52.458625,18.6121481 53.14975,17.9244912 C53.955875,17.121809 54.40175,16.0530214 54.402875,14.9139961 Z M51.6435,16.4170604 C51.240375,16.8172788 50.706,17.0377232 50.135375,17.0377232 C50.13425,17.0377232 50.13325,17.0377232 50.132125,17.0377232 L46.932375,17.0377232 C46.3425,17.0377232 45.86575,17.5146667 45.86575,18.102269 C45.86575,18.6898713 46.3425,19.1668148 46.932375,19.1668148 L47.04975,19.1700585 C48.225125,19.2328109 49.129625,20.2377232 49.069875,21.3682651 C48.961125,22.5413489 47.963875,23.4494503 46.751125,23.4248733 L41.5995,23.4248733 C41.009625,23.4248733 40.532875,23.9018168 40.532875,24.4894191 C40.532875,25.0770214 41.009625,25.5539649 41.5995,25.5539649 C42.776,25.5539649 43.73275,26.5088499 43.73275,27.6830565 C43.73275,28.8572632 42.776,29.8121481 41.5995,29.8121481 L24.533875,29.8121481 L24.533875,15.0704405 C24.513625,13.8919922 25.42025,12.883961 26.554,12.7774191 L26.67025,12.7741754 C27.844625,12.7751735 28.799125,13.7290604 28.80025,14.9000234 L28.80025,14.9075088 C28.80025,15.4951111 29.277,15.9720546 29.86575,15.9720546 C29.866875,15.9720546 29.866875,15.9720546 29.866875,15.9720546 C30.455625,15.9720546 30.932375,15.4962339 30.9335,14.9086316 L30.9335,14.9076335 L30.9335,9.74783626 C30.91325,8.56938791 31.819875,7.56135673 32.953625,7.45481481 L33.068875,7.45157115 C34.24425,7.45369201 35.198875,8.40745419 35.2,9.57953996 L35.2,9.58590253 C35.2,10.1735049 35.67675,10.6504483 36.2655,10.6504483 C36.266625,10.6504483 36.266625,10.6504483 36.266625,10.6504483 C36.855375,10.6504483 37.332125,10.1746277 37.33325,9.58702534 L37.33325,9.58590253 L37.33325,4.263423 L37.3365,4.14527875 C37.398375,2.97319298 38.38175,2.0705809 39.538,2.12909162 C40.7155,2.23875244 41.621,3.24678363 41.598625,4.4454425 L41.598625,5.32896686 C41.598625,5.76012476 41.86,6.14973879 42.261,6.31366862 C42.658875,6.47759844 43.12175,6.38390643 43.424625,6.07525926 L46.31825,3.14460819 C46.397125,3.06688499 46.47825,2.99340351 46.5625,2.9242885 C48.038625,1.71290448 50.22625,1.92361793 51.429375,3.37989864 C52.5685,4.81908772 52.43725,6.87145419 51.116875,8.16280702 L48.31175,10.9624639 C48.00675,11.2668694 47.915,11.7246004 48.08025,12.1228226 C48.2445,12.519922 48.634875,12.7796647 49.06575,12.7796647 L49.951,12.7796647 C49.973375,12.7796647 49.989375,12.7796647 50.0075,12.7796647 C51.17225,12.7796647 52.162,13.676039 52.2665,14.7958519 L52.26975,14.9129981 C52.2685,15.4813879 52.04675,16.0157193 51.6435,16.4170604 Z" id="Shape" fill-rule="nonzero"></path>
            <polygon id="Rectangle" transform="translate(32.001254, 22.356715) rotate(-45.000000) translate(-32.001254, -22.356715) " points="10.9036867 21.2706201 53.0967427 21.311784 53.0988217 23.4428095 10.9057657 23.4016455"></polygon>
            <rect id="Rectangle" x="39.464125" y="8.526846" width="2.13325" height="5.32260429"></rect>
            <rect id="Rectangle" x="33.0645" y="13.8494503" width="2.13325" height="6.3871501"></rect>
            <rect id="Rectangle" x="26.664875" y="19.1613255" width="2.13325" height="7.45157115"></rect>
            <rect id="Rectangle" x="40.530625" y="12.7849045" width="5.333" height="2.12896686"></rect>
            <rect id="Rectangle" x="34.131125" y="19.1613255" width="6.399625" height="2.12896686"></rect>
            <rect id="Rectangle" x="27.7315" y="25.5484756" width="7.466125" height="2.12909162"></rect>
            <path d="M19.910125,4.92450682 C19.909125,4.92238596 19.906875,4.92026511 19.905875,4.91814425 C18.400875,2.66878752 15.341875,2.05773099 13.08925,3.55979727 C13.018875,3.60558285 12.9495,3.65448733 12.870625,3.71312281 L12.486625,4.00480312 L12.117625,3.73969591 C10.16575,1.92261988 7.097125,1.99610136 5.239125,3.92071735 C4.329375,4.86175439 3.840875,6.10083431 3.865375,7.409154 C3.889875,8.71747368 4.422125,9.93734113 5.364,10.8443197 C5.638125,11.1083041 5.943125,11.3403509 6.271625,11.5340975 L7.16975,12.2346043 L7.16975,12.7796647 C7.16975,15.7145575 9.562125,18.102269 12.50275,18.102269 C15.443375,18.102269 17.83575,15.7134347 17.834625,12.7786667 L17.834625,12.2336062 L18.778625,11.4980429 C20.821,9.95118908 21.317,7.06320468 19.910125,4.92450682 Z M17.47725,9.8117115 L16.112,10.8762573 C15.853875,11.0774893 15.702375,11.3872593 15.702375,11.7151189 L15.702375,12.7796647 C15.702375,14.5403509 14.26675,15.9731774 12.502625,15.9731774 C10.7385,15.9731774 9.302875,14.5403509 9.302875,12.7796647 L9.302875,11.7151189 C9.302875,11.3872593 9.1525,11.0774893 8.89325,10.8762573 L7.528,9.8117115 C7.4875,9.77977388 7.44375,9.75107992 7.399,9.72550487 C7.1985,9.61160234 7.012875,9.47324756 6.8465,9.31243665 C6.31325,8.79931384 6.012375,8.10953606 5.9985,7.37072904 C5.984625,6.63192203 6.260875,5.93153996 6.775,5.39920468 C7.317875,4.83717739 8.04425,4.55398051 8.771625,4.55398051 C9.464875,4.55398051 10.15925,4.81047953 10.696875,5.32896686 C10.733125,5.36302534 10.7715,5.39608577 10.813125,5.42577778 L11.87975,6.1922807 C12.2595,6.46587135 12.774625,6.45950877 13.148,6.17631189 L14.27225,5.33221053 C14.890875,4.9191423 15.632125,4.77442495 16.36175,4.91814425 C17.089125,5.0628616 17.717375,5.48129435 18.130125,6.09659259 C18.9215,7.30373489 18.639875,8.93030799 17.47725,9.8117115 Z" id="Shape" fill-rule="nonzero"></path>
            <rect id="Rectangle" x="23.465125" y="1.06454581" width="2.13325" height="2.12896686"></rect>
            <rect id="Rectangle" x="29.86475" y="35.1291384" width="2.133125" height="2.12896686"></rect>
            <path d="M57.598375,6.39251462 L57.598375,8.52160624 C58.774875,8.52160624 59.731625,9.47649123 59.731625,10.6505731 C59.731625,11.824655 58.774875,12.7796647 57.598375,12.7796647 L57.598375,14.9086316 C59.95125,14.9086316 61.86475,12.9988616 61.86475,10.6505731 C61.86475,8.3022846 59.95125,6.39251462 57.598375,6.39251462 Z" id="Path"></path>
            <rect id="Rectangle" x="2.13325" y="15.9784172" width="2.133125" height="2.12909162"></rect>
            <rect id="Rectangle" x="0.002125" y="11.7203587" width="2.133125" height="2.12909162"></rect>
            <path d="M41.599375,34.0688343 C39.2465,34.0688343 37.333,35.9786043 37.333,38.3268928 L39.46625,38.3268928 C39.46625,37.1526862 40.423,36.1978012 41.599375,36.1978012 C42.775875,36.1978012 43.732625,37.1526862 43.732625,38.3268928 L45.86575,38.3268928 C45.86575,35.9786043 43.95225,34.0688343 41.599375,34.0688343 Z" id="Path"></path>
            <path d="M12.801375,24.4881715 L12.667,24.4881715 C12.19125,22.6540039 10.519875,21.2946589 8.535,21.2946589 C6.550125,21.2946589 4.877625,22.6540039 4.403,24.4881715 L4.268625,24.4881715 C1.91575,24.4881715 0.00225,26.3979415 0.00225,28.74623 C0.00225,31.0945185 1.91575,33.0042885 4.268625,33.0042885 L12.801375,33.0042885 C15.15425,33.0042885 17.06775,31.0945185 17.06775,28.74623 C17.06775,26.3979415 15.15425,24.4881715 12.801375,24.4881715 Z M12.801375,30.8763197 L4.2685,30.8763197 C3.092,30.8763197 2.13525,29.9214347 2.13525,28.7473528 C2.13525,27.5731462 3.092,26.6182612 4.2685,26.6182612 L5.335125,26.6182612 C5.923875,26.6182612 6.40175,26.1413177 6.40175,25.5537154 C6.40175,24.3795088 7.3585,23.4247485 8.535,23.4247485 C9.7115,23.4247485 10.66825,24.3796335 10.66825,25.5537154 C10.66825,26.1413177 11.146125,26.6182612 11.734875,26.6182612 L12.8015,26.6182612 C13.978,26.6182612 14.93475,27.5731462 14.93475,28.7473528 C14.9345,29.9215595 13.97775,30.8763197 12.801375,30.8763197 Z" id="Shape" fill-rule="nonzero"></path>
            <path d="M10.668125,30.8753216 L6.40175,30.8753216 C5.813,30.8753216 5.335125,31.3522651 5.335125,31.9398674 L5.335125,36.1979259 C5.335125,36.7866511 5.813,37.2624717 6.40175,37.2624717 L10.668125,37.2624717 C11.256875,37.2624717 11.73475,36.7866511 11.73475,36.1979259 L11.73475,31.9398674 C11.73475,31.3522651 11.256875,30.8753216 10.668125,30.8753216 Z M9.6015,35.1333801 L7.468375,35.1333801 L7.468375,33.0044133 L9.601625,33.0044133 L9.601625,35.1333801 L9.6015,35.1333801 Z" id="Shape" fill-rule="nonzero"></path>
            <path d="M56.53175,27.681809 C54.767625,27.681809 53.332,29.1146355 53.332,30.8753216 C53.332,32.6360078 54.767625,34.0688343 56.53175,34.0688343 C58.295875,34.0688343 59.7315,32.6360078 59.7315,30.8753216 C59.7315,29.1146355 58.295875,27.681809 56.53175,27.681809 Z M56.53175,31.9408655 C55.943,31.9408655 55.465125,31.462924 55.465125,30.8763197 C55.465125,30.2897154 55.943,29.8117739 56.53175,29.8117739 C57.1205,29.8117739 57.598375,30.2887173 57.598375,30.8763197 C57.598375,31.4640468 57.1205,31.9408655 56.53175,31.9408655 Z" id="Shape" fill-rule="nonzero"></path>
            <path d="M56.53175,23.4237505 C52.41575,23.4237505 49.065625,26.766347 49.065625,30.8753216 C49.065625,34.9842963 52.41575,38.3268928 56.53175,38.3268928 C60.64775,38.3268928 63.997875,34.9842963 63.997875,30.8753216 C63.997875,26.766347 60.64775,23.4237505 56.53175,23.4237505 Z M56.53175,36.198924 C53.591125,36.198924 51.19875,33.8102144 51.19875,30.8763197 C51.19875,27.9414269 53.591125,25.5537154 56.53175,25.5537154 C59.472375,25.5537154 61.86475,27.9414269 61.86475,30.8763197 C61.86475,33.8112125 59.472375,36.198924 56.53175,36.198924 Z" id="Shape" fill-rule="nonzero"></path>
        </g>
    </g>
</svg>