<?xml version="1.0" encoding="UTF-8"?>
<svg width="64px" height="64px" viewBox="0 0 64 64" version="1.1" xmlns="http://www.w3.org/2000/svg" xmlns:xlink="http://www.w3.org/1999/xlink">
    <!-- Generator: Sketch 53 (72520) - https://sketchapp.com -->
    <title>icon-entree</title>
    <desc>Created with Sketch.</desc>
    <g id="icon-entree" stroke="none" stroke-width="1" fill="none" fill-rule="evenodd">
        <g id="001-hamburger" transform="translate(6.000000, 0.000000)" fill="#222222">
            <rect id="Rectangle" x="24.736125" y="1.066625" width="2.133375" height="12.8"></rect>
            <path d="M34.336125,0 L25.80275,0 C25.214,0 24.736125,0.477875 24.736125,1.066625 L24.736125,7.466625 C24.736125,8.055375 25.214,8.53325 25.80275,8.53325 L34.336125,8.53325 C34.926,8.53325 35.40275,8.055375 35.40275,7.466625 L35.40275,1.066625 C35.40275,0.477875 34.926,0 34.336125,0 Z M33.2695,6.4 L26.8695,6.4 L26.8695,2.133375 L33.2695,2.133375 L33.2695,6.4 Z" id="Shape" fill-rule="nonzero"></path>
            <path d="M34.336125,12.8 L17.2695,12.8 C7.859375,12.8 0.202875,20.4565 0.202875,29.866625 C0.202875,30.455375 0.68075,30.93325 1.2695,30.93325 L50.336125,30.93325 C50.926,30.93325 51.40275,30.455375 51.40275,29.866625 C51.40275,20.4565 43.74625,12.8 34.336125,12.8 Z M2.3735,28.8 C2.923875,21.062375 9.39425,14.933375 17.2695,14.933375 L34.336125,14.933375 C42.211375,14.933375 48.68275,21.0625 49.232125,28.8 L2.3735,28.8 Z" id="Shape" fill-rule="nonzero"></path>
            <path d="M47.42625,34.353125 C45.96175,35.476375 43.915875,35.476375 42.447,34.349875 C40.191,32.642125 37.05925,32.668875 34.8395,34.4075 C33.372875,35.53175 31.328,35.529625 29.864625,34.405375 C27.633125,32.700875 24.517375,32.69975 22.286,34.406375 C20.81725,35.526375 18.767125,35.529625 17.300375,34.406375 C15.071,32.697625 11.9585,32.697625 9.73125,34.406375 C8.264625,35.5275 6.2145,35.529625 4.765875,34.422375 C3.446375,33.361 1.733375,32.894875 0.05125,33.130625 L0.35525,35.242625 C1.442125,35.085875 2.5665,35.392 3.448625,36.10025 C5.679,37.808 8.795875,37.806875 11.02725,36.10025 C12.49175,34.977 14.537625,34.977 16.00325,36.10025 C18.233625,37.806875 21.3505,37.805875 23.580875,36.101375 C25.05075,34.978125 27.09975,34.98025 28.5675,36.09925 C29.68,36.95475 31.0145,37.381375 32.349875,37.381375 C33.6875,37.381375 35.02725,36.952625 36.14725,36.092875 C37.61075,34.944125 39.6715,34.92375 41.154125,36.047 C43.3835,37.75475 46.496,37.75575 48.73175,36.040625 C49.4795,35.45825 50.40325,35.168125 51.359,35.199 L51.448625,33.06775 C49.998,32.99525 48.564375,33.4645 47.42625,34.353125 Z" id="Path"></path>
            <path d="M46.0695,39.466625 L5.536125,39.466625 C2.595375,39.466625 0.20275,41.859125 0.20275,44.8 C0.20275,47.74075 2.59525,50.133375 5.536125,50.133375 L46.0695,50.133375 C49.01025,50.133375 51.402875,47.740875 51.402875,44.8 C51.40275,41.85925 49.01025,39.466625 46.0695,39.466625 Z M46.0695,48 L5.536125,48 C3.771875,48 2.336125,46.56425 2.336125,44.8 C2.336125,43.03575 3.771875,41.6 5.536125,41.6 L46.0695,41.6 C47.83375,41.6 49.2695,43.03575 49.2695,44.8 C49.2695,46.56425 47.83375,48 46.0695,48 Z" id="Shape" fill-rule="nonzero"></path>
            <path d="M50.336125,52.266625 L1.2695,52.266625 C0.68075,52.266625 0.202875,52.743375 0.202875,53.33325 L0.202875,58.666625 C0.202875,61.607375 2.595375,64 5.53625,64 L46.069625,64 C49.010375,64 51.403,61.6075 51.403,58.666625 L51.403,53.33325 C51.40275,52.7435 50.926,52.266625 50.336125,52.266625 Z M49.2695,58.666625 C49.2695,60.430875 47.83375,61.866625 46.0695,61.866625 L5.536125,61.866625 C3.771875,61.866625 2.336125,60.430875 2.336125,58.666625 L2.336125,54.4 L49.2695,54.4 L49.2695,58.666625 Z" id="Shape" fill-rule="nonzero"></path>
            <path d="M43.31,39.6715 L32.203875,47.74825 L21.09775,39.6715 L19.84225,41.39625 L31.575625,49.929625 C31.76225,50.066125 31.983125,50.133375 32.202875,50.133375 C32.422625,50.133375 32.643375,50.066125 32.831125,49.929625 L44.5645,41.39625 L43.31,39.6715 Z" id="Path"></path>
            <rect id="Rectangle" x="31.136125" y="17.066625" width="2.133375" height="2.133375"></rect>
            <rect id="Rectangle" x="24.736125" y="17.066625" width="2.133375" height="2.133375"></rect>
            <rect id="Rectangle" x="18.336125" y="17.066625" width="2.133375" height="2.133375"></rect>
            <rect id="Rectangle" x="27.936125" y="21.333375" width="2.133375" height="2.133375"></rect>
            <rect id="Rectangle" x="21.536125" y="21.333375" width="2.133375" height="2.133375"></rect>
            <rect id="Rectangle" x="15.136125" y="21.333375" width="2.133375" height="2.133375"></rect>
            <rect id="Rectangle" x="34.336125" y="21.333375" width="2.133375" height="2.133375"></rect>
        </g>
    </g>
</svg>