<?xml version="1.0" encoding="UTF-8"?>
<svg width="64px" height="64px" viewBox="0 0 64 64" version="1.1" xmlns="http://www.w3.org/2000/svg" xmlns:xlink="http://www.w3.org/1999/xlink">
    <!-- Generator: Sketch 53 (72520) - https://sketchapp.com -->
    <title>icon-snacks</title>
    <desc>Created with Sketch.</desc>
    <g id="icon-snacks" stroke="none" stroke-width="1" fill="none" fill-rule="evenodd">
        <g id="005-cheese" transform="translate(0.000000, 5.000000)" fill="#222222">
            <path d="M40.533375,0.083375 C40.341375,0.083375 40.153625,0.134625 39.98825,0.23275 L0.521625,23.699375 C0.108875,23.94475 -0.0885,24.4365 0.038375,24.899375 C0.165375,25.36225 0.586625,25.683375 1.066625,25.683375 L62.93325,25.683375 C63.523125,25.683375 63.999875,25.2055 63.999875,24.61675 L63.999875,23.55 C64,10.61025 53.473125,0.083375 40.533375,0.083375 Z M4.94825,23.55 L40.822375,2.21875 C52.45325,2.3745 61.866625,11.88375 61.866625,23.55 L4.94825,23.55 Z" id="Shape" fill-rule="nonzero"></path>
            <path d="M48,28.883375 C45.05925,28.883375 42.666625,31.275875 42.666625,34.21675 C42.666625,37.1575 45.059125,39.550125 48,39.550125 C50.94075,39.550125 53.333375,37.157625 53.333375,34.21675 C53.333375,31.275875 50.94075,28.883375 48,28.883375 Z M48,37.416625 C46.23575,37.416625 44.8,35.980875 44.8,34.216625 C44.8,32.452375 46.23575,31.016625 48,31.016625 C49.76425,31.016625 51.2,32.452375 51.2,34.216625 C51.2,35.980875 49.76425,37.416625 48,37.416625 Z" id="Shape" fill-rule="nonzero"></path>
            <rect id="Rectangle" x="35.2" y="28.883375" width="2.133375" height="2.133375"></rect>
            <rect id="Rectangle" x="9.6" y="39.55" width="2.133375" height="2.133375"></rect>
            <rect id="Rectangle" x="57.6" y="39.55" width="2.133375" height="2.133375"></rect>
            <rect id="Rectangle" x="23.466625" y="33.15" width="2.133375" height="2.133375"></rect>
            <path d="M62.933375,23.55 L1.066625,23.55 C0.477875,23.55 0,24.027875 0,24.616625 L0,33.15 C0,33.739875 0.477875,34.216625 1.066625,34.216625 C3.41975,34.216625 5.33325,36.13025 5.33325,38.48325 C5.333375,40.836375 3.41975,42.75 1.066625,42.75 C0.477875,42.75 0,43.22675 0,43.816625 L0,52.35 C0,52.939875 0.477875,53.416625 1.066625,53.416625 L37.33325,53.416625 C37.923125,53.416625 38.399875,52.939875 38.399875,52.35 C38.399875,50.58575 39.835625,49.15 41.599875,49.15 C43.364125,49.15 44.799875,50.58575 44.799875,52.35 C44.799875,52.939875 45.276625,53.416625 45.8665,53.416625 L62.933125,53.416625 C63.523,53.416625 63.99975,52.939875 63.99975,52.35 L63.99975,24.616625 C64,24.027875 63.52325,23.55 62.933375,23.55 Z M61.86675,51.283375 L46.826625,51.283375 C46.330625,48.8525 44.176,47.01675 41.6,47.01675 C39.024,47.01675 36.870375,48.8525 36.374375,51.283375 L2.133375,51.283375 L2.133375,44.794875 C5.15625,44.285 7.46675,41.64925 7.46675,38.483375 C7.46675,35.3175 5.156375,32.68175 2.133375,32.171875 L2.133375,25.683375 L61.86675,25.683375 L61.86675,51.283375 L61.86675,51.283375 Z" id="Shape" fill-rule="nonzero"></path>
            <path d="M25.6,39.55 C23.246875,39.55 21.333375,41.463625 21.333375,43.816625 C21.333375,46.16975 23.247,48.08325 25.6,48.08325 C27.953,48.08325 29.866625,46.169625 29.866625,43.816625 C29.866625,41.463625 27.953125,39.55 25.6,39.55 Z M25.6,45.95 C24.4235,45.95 23.466625,44.99325 23.466625,43.816625 C23.466625,42.640125 24.423375,41.68325 25.6,41.68325 C26.7765,41.68325 27.733375,42.64 27.733375,43.816625 C27.733375,44.99325 26.7765,45.95 25.6,45.95 Z" id="Shape" fill-rule="nonzero"></path>
            <rect id="Rectangle" x="36.266625" y="40.616625" width="2.133375" height="2.133375"></rect>
            <path d="M16,28.883375 C14.23575,28.883375 12.8,30.319125 12.8,32.083375 C12.8,33.847625 14.23575,35.283375 16,35.283375 C17.76425,35.283375 19.2,33.847625 19.2,32.083375 C19.2,30.319125 17.76425,28.883375 16,28.883375 Z M16,33.15 C15.41225,33.15 14.933375,32.672125 14.933375,32.083375 C14.933375,31.494625 15.41225,31.01675 16,31.01675 C16.58775,31.01675 17.066625,31.494625 17.066625,32.083375 C17.066625,32.672125 16.58775,33.15 16,33.15 Z" id="Shape" fill-rule="nonzero"></path>
            <rect id="Rectangle" x="53.333375" y="44.883375" width="2.133375" height="2.133375"></rect>
        </g>
    </g>
</svg>